<svg width="37" height="38" viewBox="0 0 37 38" fill="none" xmlns="http://www.w3.org/2000/svg">
<mask id="mask0_2_48" style="mask-type:alpha" maskUnits="userSpaceOnUse" x="0" y="0" width="37" height="38">
<rect y="0.5" width="37" height="37" fill="#D9D9D9"/>
</mask>
<g mask="url(#mask0_2_48)">
<path d="M18.4999 24.5955L13.1258 19.2214L14.0607 18.3003L17.8477 22.0675V8.20834H19.1522V22.0675L22.9391 18.3003L23.874 19.2214L18.4999 24.5955ZM9.96144 29.7917C9.32994 29.7917 8.79654 29.574 8.36122 29.1387C7.92591 28.7034 7.70825 28.17 7.70825 27.5385V23.5282H9.01273V27.5385C9.01273 27.7757 9.11155 27.9931 9.3092 28.1907C9.50684 28.3884 9.72425 28.4872 9.96144 28.4872H27.0384C27.2756 28.4872 27.493 28.3884 27.6906 28.1907C27.8883 27.9931 27.9871 27.7757 27.9871 27.5385V23.5282H29.2916V27.5385C29.2916 28.17 29.0739 28.7034 28.6386 29.1387C28.2033 29.574 27.6699 29.7917 27.0384 29.7917H9.96144Z" fill="#DEDDE3"/>
</g>
</svg>
