<?xml version="1.0" encoding="utf-8"?>
<!-- Generator: Adobe Illustrator 28.3.0, SVG Export Plug-In . SVG Version: 6.00 Build 0)  -->
<svg version="1.1" id="Capa_1" xmlns="http://www.w3.org/2000/svg" xmlns:xlink="http://www.w3.org/1999/xlink" x="0px" y="0px"
	 viewBox="0 0 200 200" style="enable-background:new 0 0 200 200;" xml:space="preserve">
<style type="text/css">
	.st0{fill:#010202;}
	.st1{fill-rule:evenodd;clip-rule:evenodd;fill:#010202;}
	.st2{fill:#FFFFFF;}
	.st3{fill-rule:evenodd;clip-rule:evenodd;fill:#FFFFFF;}
</style>
<g>
	<path class="st3" d="M62.6,109.7c-1.7-1.7-4.1-2.8-6.7-2.8c-2.6,0-5,1.1-6.7,2.8c-1.7,1.7-2.8,4.1-2.8,6.7c0,2.6,1.1,5,2.8,6.7
		c1.7,1.7,4.1,2.8,6.7,2.8c2.6,0,5-1.1,6.7-2.8s2.8-4.1,2.8-6.7C65.3,113.8,64.3,111.5,62.6,109.7z M150.9,119.8c0,0,0-0.1,0-0.1
		c0.4-1,0.5-2.1,0.5-3.2c0-2.6-1.1-5-2.8-6.7c-1.7-1.7-4.1-2.8-6.7-2.8s-5,1.1-6.7,2.8s-2.8,4.1-2.8,6.7s1.1,5,2.8,6.7
		c1.7,1.7,4.1,2.8,6.7,2.8c2.6,0,5-1.1,6.7-2.8C149.7,122.2,150.5,121,150.9,119.8L150.9,119.8z M30.7,98.8c0.5-0.1,0.9-0.2,1.3-0.3
		c0.5-0.1,0.7-0.2,0.8-0.2c0,0,0-0.1,0.1-0.3c0.2-0.4,0.4-1.1,0.5-1.7c0.2-0.6,0.3-1.3,0.4-1.8c0.1-0.4,0.1-0.6,0-0.8
		c-0.1-0.3-0.2-0.6-0.6-1.2c-0.3-0.5-0.8-1.2-1.3-1.9L32,90.6c-0.1,0.5-0.3,1-0.4,1.6C31.2,94,30.9,96.2,30.7,98.8L30.7,98.8z
		 M151.9,95.5l0,1.9c0,1.4,0.5,2.6,1.4,3.5c0.8,0.9,1.9,1.4,3,1.4h6.5c0-0.2-0.1-0.4-0.2-0.7c-0.1-0.4-0.3-0.8-0.5-1.2
		c-0.2-0.4-0.5-0.7-0.9-0.9C159.2,98,156.1,96.6,151.9,95.5L151.9,95.5z M76,114.3c-0.9,0-1.6-0.8-1.6-1.6s0.8-1.6,1.6-1.6l45,1.1
		c0.9,0,1.6,0.8,1.6,1.6c0,0.9-0.8,1.6-1.6,1.6L76,114.3z M29.7,112.4c0.2-3.8,0.4-7.3,0.7-10.3c0.9-0.1,1.7-0.3,2.3-0.4
		c0.9-0.2,1.5-0.4,2.1-0.8c0.6-0.4,0.9-0.9,1.2-1.7c0.2-0.5,0.4-1.2,0.6-2c0.2-0.7,0.4-1.5,0.5-2.1v0c0.1-0.8,0.2-1.3,0-2.1
		c-0.1-0.7-0.5-1.3-1-2.2c-0.3-0.5-0.8-1.2-1.4-2c-0.4-0.5-0.7-1-1.1-1.5c0.2-0.3,0.4-0.5,0.7-0.7c1.2-1,0.7-0.6,0.9-0.8
		c3.9-3.5,11.2-10,15.5-10.6c8.3-1.1,17.4-1.4,26.4-1c8.8,0.4,17.5,1.5,25.5,3.4c3,0.9,6.4,2.5,10.3,4.8c4,2.3,8.5,5.4,13.4,9.2
		c0.3,0.2,0.6,0.3,0.9,0.4c8.7,0.6,15.9,1.5,21.5,2.7l0,2.7c0,2.2,0.9,4.2,2.2,5.7c1.4,1.5,3.3,2.4,5.4,2.4h7.1
		c0.2,1.2,0.3,2.4,0.3,3.6c0.1,2.4,0.1,5,0,7.7c-1.5,0.6-3.1,1-4.8,1.3c-1.4,0.2-2.8,0.4-4.3,0.4c0.1-0.7,0.2-1.5,0.2-2.2
		c0-3.5-1.4-6.7-3.7-9c-2.3-2.3-5.5-3.7-9-3.7c-3.5,0-6.7,1.4-9,3.7c-2.3,2.3-3.7,5.5-3.7,9c0,0.8,0.1,1.6,0.2,2.4l-61.2-0.6
		c0.1-0.6,0.1-1.2,0.1-1.8c0-3.5-1.4-6.7-3.7-9c-2.3-2.3-5.5-3.7-9-3.7c-3.5,0-6.7,1.4-9,3.7c-2.3,2.3-3.7,5.5-3.7,9
		c0,0.5,0,1,0.1,1.5l-9.5-0.1c-0.1,0-0.1,0-0.2,0c-1.7,0-2.6-0.8-3.2-1.6c-0.1-0.2-0.2-0.4-0.3-0.6h3.5c0.9,0,1.6-0.7,1.6-1.6
		c0-0.9-0.7-1.6-1.6-1.6L29.7,112.4z M26.5,114.4c0-0.1,0-0.1,0-0.2l0-0.1c0-0.1,0-0.3,0-0.4c0.2-4.8,0.5-9,0.8-12.7l0-0.3
		c0,0,0-0.1,0-0.1c0.3-3.5,0.7-6.5,1.2-8.9c0.3-1.4,0.6-2.7,1.2-3.9c0.6-1.3,1.4-2.4,2.4-3.5l0,0c0.6-0.6,0.1-0.1,0.9-0.8
		c4.2-3.7,11.9-10.6,17.3-11.3c8.5-1.1,17.7-1.5,26.9-1c9,0.4,18,1.6,26.1,3.5c0,0,0.1,0,0.1,0c3.2,1,6.9,2.7,11,5.1
		c4,2.4,8.5,5.4,13.4,9.2c8.9,0.6,16.2,1.5,22,2.8c6,1.4,10.4,3.1,13.3,5.3c0.7,0.5,1.2,1.1,1.7,1.8c0.4,0.7,0.7,1.4,0.9,2.2
		c0.2,0.8,0.4,1.7,0.5,2.6c0,0.1,0,0.2,0,0.3c0.3,1.7,0.5,3.4,0.6,5.2c0.2,2.9,0.1,5.9-0.1,9.1c0,0.7-0.5,1.2-1.1,1.4
		c-2,0.9-4.1,1.5-6.3,1.8c-1.9,0.3-3.8,0.5-5.9,0.4c-0.6,1.3-1.5,2.5-2.5,3.5c-2.3,2.3-5.5,3.7-9,3.7s-6.7-1.4-9-3.7
		c-1-1-1.8-2.1-2.4-3.3l-63.2-0.6c-0.6,1.5-1.6,2.9-2.7,4c-2.3,2.3-5.5,3.7-9,3.7c-3.5,0-6.7-1.4-9-3.7c-1.2-1.2-2.2-2.6-2.8-4.2
		l-10.3-0.1c0,0-0.1,0-0.1,0c-3.1,0-4.9-1.5-5.9-3.2C26.9,116.5,26.6,115.1,26.5,114.4L26.5,114.4z M92.8,90.7h21.3
		c-4.3-3.1-8.1-5.7-12.9-7.2c-3.4-1-6.8-1.8-10.2-2.4c0.4,1.5,0.7,2.9,1,4.4C92.3,87.2,92.6,89,92.8,90.7L92.8,90.7z M62.3,90.7
		h27.2c-0.2-1.5-0.5-3-0.8-4.5c-0.4-1.9-0.8-3.7-1.3-5.6c-2.8-0.4-5.6-0.6-8.5-0.8c-4.1-0.2-8.4-0.3-12.8-0.2c-1,2.8-1.8,5-2.3,6.6
		C63.3,88.1,62.8,89.5,62.3,90.7L62.3,90.7z M44.8,86.5c1.6,0.6,3.5,1.2,5.5,1.8c2.7,0.8,5.7,1.5,8.7,2.1l0,0c0-0.2,0-0.4,0.1-0.5
		c0.5-1.2,1-2.8,1.7-4.7c0.6-1.8,1.3-3.6,1.9-5.5c-2.6,0.1-5.4,0.2-8.1,0.3c-1.9,0.1-3.7,0.8-5.3,1.8C47.6,83,46,84.6,44.8,86.5
		L44.8,86.5z M118.8,93.9c0.5,0.1,1.1-0.2,1.5-0.7c0.5-0.7,0.4-1.7-0.4-2.2c-1.1-0.8-1.8-1.3-2.5-1.8c-5.1-3.8-9.4-7-15.4-8.7
		C94.4,78.1,87,77,79.2,76.6c-7.7-0.4-15.8-0.2-24.7,0.3c-2.4,0.1-4.8,1-6.9,2.3c-2.2,1.4-4,3.4-5.4,5.6c-0.2,0.3-0.4,0.6-0.5,0.9
		c-0.1,0.2-0.3,0.5-0.4,0.8c0,0.1-0.1,0.1-0.1,0.2c-0.3,0.8,0,1.8,0.9,2.1c2.1,0.9,4.7,1.7,7.6,2.6c2.8,0.8,5.8,1.6,8.9,2.2
		c0.5,0.1,1,0.2,1.5,0.2c0.5,0,1,0.1,1.5,0.1h57.2C118.7,93.9,118.8,93.9,118.8,93.9L118.8,93.9z M49.5,100.4h6.3
		c0.9,0,1.6-0.7,1.6-1.6c0-0.9-0.7-1.6-1.6-1.6h-6.3c-0.9,0-1.6,0.7-1.6,1.6C47.9,99.7,48.7,100.4,49.5,100.4z"/>
</g>
</svg>
