<?xml version="1.0" encoding="utf-8"?>
<!-- Generator: Adobe Illustrator 28.3.0, SVG Export Plug-In . SVG Version: 6.00 Build 0)  -->
<svg version="1.1" id="Capa_1" xmlns="http://www.w3.org/2000/svg" xmlns:xlink="http://www.w3.org/1999/xlink" x="0px" y="0px"
	 viewBox="0 0 200 200" style="enable-background:new 0 0 200 200;" xml:space="preserve">
<style type="text/css">
	.st0{fill:#010202;}
	.st1{fill-rule:evenodd;clip-rule:evenodd;fill:#010202;}
	.st2{fill:#FFFFFF;}
</style>
<g>
	<path class="st1" d="M54.8,112c-2.1-2.1-5-3.4-8.2-3.4s-6.1,1.3-8.2,3.4c-2.1,2.1-3.4,5-3.4,8.2c0,3.2,1.3,6.1,3.4,8.2
		c2.1,2.1,5,3.4,8.2,3.4s6.1-1.3,8.2-3.4c2.1-2.1,3.4-5,3.4-8.2C58.2,117,56.9,114.1,54.8,112z M163.3,124.3c0-0.1,0-0.1,0.1-0.2
		c0.4-1.2,0.7-2.5,0.7-3.9c0-3.2-1.3-6.1-3.4-8.2s-5-3.4-8.2-3.4c-3.2,0-6.1,1.3-8.2,3.4s-3.4,5-3.4,8.2s1.3,6.1,3.4,8.2
		c2.1,2.1,5,3.4,8.2,3.4c3.2,0,6.1-1.3,8.2-3.4C161.8,127.3,162.7,125.8,163.3,124.3L163.3,124.3z M15.6,98.5
		c0.6-0.1,1.2-0.2,1.6-0.3c0.6-0.1,0.9-0.2,1-0.3c0,0,0-0.1,0.1-0.3c0.2-0.5,0.4-1.3,0.7-2.1c0.2-0.8,0.4-1.6,0.5-2.2
		c0.1-0.4,0.1-0.7,0.1-1c-0.1-0.3-0.3-0.7-0.7-1.5c-0.4-0.6-0.9-1.4-1.6-2.3l-0.1-0.1c-0.2,0.6-0.3,1.3-0.4,1.9
		C16.3,92.7,16,95.4,15.6,98.5L15.6,98.5z M164.4,94.5l0,2.4c0,1.7,0.7,3.2,1.7,4.4c1,1.1,2.3,1.7,3.7,1.7h8
		c-0.1-0.3-0.1-0.5-0.2-0.8c-0.1-0.5-0.3-1-0.6-1.5c-0.3-0.4-0.7-0.8-1.1-1.2C173.4,97.5,169.6,95.9,164.4,94.5L164.4,94.5z
		 M71.2,117.6c-1.1,0-1.9-0.9-1.9-2c0-1.1,0.9-1.9,2-1.9l55.3,1.4c1.1,0,1.9,0.9,1.9,2c0,1.1-0.9,1.9-2,1.9L71.2,117.6z M14.5,115.2
		c0.2-4.7,0.5-8.9,0.8-12.6c1.1-0.2,2.1-0.4,2.8-0.5c1.2-0.2,1.9-0.5,2.5-1c0.7-0.5,1.1-1.2,1.4-2.1c0.2-0.6,0.5-1.5,0.8-2.4
		c0.2-0.9,0.5-1.8,0.6-2.5v0c0.2-0.9,0.2-1.7,0-2.5c-0.2-0.8-0.6-1.6-1.3-2.7c-0.4-0.6-1-1.5-1.7-2.5c-0.4-0.6-0.9-1.3-1.3-1.9
		c0.2-0.3,0.5-0.6,0.8-0.9c1.4-1.3,0.9-0.8,1.1-0.9c4.8-4.3,13.8-12.3,19.1-13c10.2-1.3,21.3-1.8,32.4-1.3
		c10.8,0.5,21.5,1.9,31.3,4.2c3.6,1.1,7.9,3.1,12.7,5.9c4.9,2.9,10.4,6.7,16.5,11.3c0.3,0.2,0.7,0.4,1.1,0.4
		c10.7,0.7,19.5,1.8,26.4,3.3l0,3.4c0,2.7,1,5.2,2.7,7c1.7,1.8,4,3,6.6,3h8.7c0.2,1.4,0.3,2.9,0.4,4.5c0.2,3,0.2,6.1-0.1,9.5
		c-1.9,0.7-3.8,1.3-5.9,1.6c-1.7,0.3-3.5,0.5-5.3,0.5c0.2-0.9,0.2-1.8,0.2-2.7c0-4.3-1.7-8.2-4.6-11c-2.8-2.8-6.7-4.6-11-4.6
		c-4.3,0-8.2,1.7-11,4.6c-2.8,2.8-4.6,6.7-4.6,11c0,1,0.1,2,0.3,3L62,122.4c0.1-0.7,0.1-1.5,0.1-2.2c0-4.3-1.7-8.2-4.6-11
		c-2.8-2.8-6.7-4.6-11-4.6s-8.2,1.7-11,4.6c-2.8,2.8-4.6,6.7-4.6,11c0,0.6,0,1.3,0.1,1.9l-11.6-0.1c-0.1,0-0.1,0-0.2,0
		c-2.1,0-3.2-1-3.9-2c-0.1-0.2-0.3-0.5-0.4-0.7h4.3c1.1,0,2-0.9,2-2c0-1.1-0.9-2-2-2L14.5,115.2z M10.5,117.6c0-0.1,0-0.2,0-0.2
		l0-0.2c0-0.2,0-0.3,0-0.5c0.3-5.9,0.6-11.1,1-15.6l0-0.4c0,0,0-0.1,0-0.1c0.4-4.3,0.9-8,1.4-10.9c0.3-1.7,0.8-3.3,1.4-4.8
		c0.7-1.5,1.7-3,3-4.2l0.1-0.1c0.8-0.7,0.1-0.1,1.1-0.9c5.1-4.6,14.7-13.1,21.2-13.9c10.4-1.4,21.8-1.8,33.1-1.3
		c11.1,0.5,22.1,1.9,32.1,4.3c0.1,0,0.1,0,0.1,0c3.9,1.2,8.4,3.3,13.5,6.3c4.9,2.9,10.4,6.7,16.5,11.3c11,0.7,19.9,1.9,27,3.5
		c7.4,1.7,12.8,3.8,16.3,6.5c0.8,0.6,1.5,1.3,2,2.2c0.5,0.8,0.9,1.7,1.2,2.7c0.2,1,0.5,2.1,0.7,3.2c0,0.1,0,0.2,0.1,0.3
		c0.3,2,0.6,4.2,0.7,6.4c0.2,3.5,0.2,7.3-0.1,11.2c-0.1,0.8-0.6,1.5-1.3,1.7c-2.5,1.1-5,1.8-7.7,2.3c-2.3,0.4-4.7,0.6-7.2,0.5
		c-0.8,1.6-1.8,3.1-3.1,4.4c-2.8,2.8-6.7,4.6-11,4.6c-4.3,0-8.2-1.7-11-4.6c-1.2-1.2-2.2-2.6-2.9-4.1l-77.5-0.8
		c-0.8,1.8-1.9,3.5-3.3,4.9c-2.8,2.8-6.7,4.6-11,4.6s-8.2-1.7-11-4.6c-1.5-1.5-2.6-3.2-3.4-5.2l-12.7-0.1c-0.1,0-0.1,0-0.2,0
		c-3.8,0-6-1.9-7.2-3.9C11,120.3,10.7,118.6,10.5,117.6L10.5,117.6z M91.9,88.6h26.2c-5.2-3.8-9.9-7-15.9-8.8
		c-4.2-1.2-8.4-2.2-12.5-2.9c0.5,1.8,0.9,3.6,1.2,5.4C91.3,84.3,91.6,86.5,91.9,88.6L91.9,88.6z M54.5,88.6h33.4
		c-0.3-1.8-0.6-3.7-0.9-5.6c-0.4-2.3-1-4.6-1.6-6.8c-3.4-0.5-6.9-0.8-10.4-1c-5.1-0.3-10.3-0.3-15.7-0.2c-1.2,3.5-2.2,6.2-2.9,8.1
		C55.7,85.4,55,87.2,54.5,88.6L54.5,88.6z M33,83.5c2,0.8,4.3,1.5,6.8,2.2c3.3,1,7,1.9,10.7,2.6l0,0c0-0.2,0-0.4,0.1-0.6
		c0.6-1.5,1.3-3.4,2.1-5.8c0.8-2.2,1.6-4.4,2.4-6.7c-3.2,0.1-6.6,0.3-10,0.4c-2.3,0.1-4.5,0.9-6.5,2.2C36.4,79.2,34.5,81.1,33,83.5
		L33,83.5z M123.9,92.5c0.7,0.1,1.4-0.2,1.8-0.8c0.6-0.9,0.4-2.1-0.4-2.8c-1.4-1-2.2-1.6-3.1-2.3c-6.3-4.6-11.6-8.6-18.9-10.7
		c-9.4-2.8-18.5-4.2-28.1-4.7c-9.5-0.5-19.4-0.2-30.3,0.3c-3,0.1-5.9,1.2-8.5,2.9c-2.7,1.7-5,4.1-6.7,6.9c-0.2,0.4-0.4,0.7-0.6,1.1
		c-0.2,0.3-0.4,0.6-0.5,1c-0.1,0.1-0.1,0.2-0.1,0.3c-0.4,1,0.1,2.2,1.1,2.6c2.5,1.1,5.7,2.1,9.3,3.2c3.4,1,7.2,1.9,11,2.7
		c0.6,0.1,1.2,0.2,1.8,0.3c0.6,0.1,1.2,0.1,1.8,0.1h70.2C123.7,92.5,123.8,92.5,123.9,92.5L123.9,92.5z M38.8,100.5h7.8
		c1.1,0,2-0.9,2-2c0-1.1-0.9-2-2-2h-7.8c-1.1,0-2,0.9-2,2C36.8,99.6,37.7,100.5,38.8,100.5z"/>
</g>
</svg>
