<?xml version="1.0" encoding="UTF-8"?>
<svg id="Capa_1" data-name="Capa 1" xmlns="http://www.w3.org/2000/svg" viewBox="0 0 200 200">
  <defs>
    <style>
      .cls-1 {
        fill: #fff;
        stroke-width: 0px;
      }
    </style>
  </defs>
  <path class="cls-1" d="M182.98,172.24H17.24l79.35-102.13,86.39,102.13ZM25.41,168.24h148.95l-77.64-91.78L25.41,168.24Z"/>
  <polygon class="cls-1" points="123.54 136.63 109.66 118.61 98.43 136.62 85.98 118.61 73.32 136.62 60.8 116.16 64.21 114.07 73.55 129.34 86.01 111.61 98.26 129.34 109.31 111.61 122.96 129.33 131.22 114.16 134.73 116.07 123.54 136.63"/>
  <rect class="cls-1" x="94.66" y="24.68" width="4" height="48.6"/>
  <path class="cls-1" d="M127.21,60.28h-32.55v-24.01h32.55v24.01ZM98.66,56.28h24.55v-16.01h-24.55v16.01Z"/>
</svg>