<?xml version="1.0" encoding="utf-8"?>
<!-- Generator: Adobe Illustrator 28.3.0, SVG Export Plug-In . SVG Version: 6.00 Build 0)  -->
<svg version="1.1" id="Capa_1" xmlns="http://www.w3.org/2000/svg" xmlns:xlink="http://www.w3.org/1999/xlink" x="0px" y="0px"
	 viewBox="0 0 200 200" style="enable-background:new 0 0 200 200;" xml:space="preserve">
<style type="text/css">
	.st0{fill:#FFFFFF;}
	.st1{fill-rule:evenodd;clip-rule:evenodd;fill:#FFFFFF;}
</style>
<g>
	<g>
		<path class="st1" d="M101.9,34.6c1.1,0,2.1,0.9,2.1,2.1v67l47.4,47.4c0.8,0.8,0.8,2.1,0,2.9c-9.9,9.9-22.5,16.6-36.1,19.2
			c-13.7,2.7-27.9,1.2-40.7-4.3c-1.5,1.2-3.4,1.8-5.3,1.8H25.7c-3.6,0-6.9-2.3-8.1-5.7c-1.3-3.4-0.2-7.3,2.5-9.6
			c-2-1.6-3.1-4.1-3.1-6.6c0-2.6,1.1-5,3.1-6.6c-2.8-2.4-3.8-6.2-2.6-9.6c1.3-3.4,4.5-5.7,8.2-5.7h7.7c-6.1-3.6-10.6-9.3-12.6-16
			c-2-6.7-1.4-14,1.7-20.3c3.1-6.3,8.5-11.2,15.1-13.7c5.4-12.5,14.4-23.2,25.8-30.7C74.9,38.6,88.2,34.6,101.9,34.6L101.9,34.6z
			 M77.1,165.6c11.7,4.7,24.5,6,36.8,3.7c12.4-2.3,23.8-8.1,33-16.7L100.4,106c-0.4-0.4-0.6-0.9-0.6-1.5V38.8
			c-11.9,0.4-23.5,4-33.6,10.4c-10,6.5-18.1,15.5-23.4,26.2c8.6-1.5,17.4,1.2,23.8,7.3c6.3,6,9.5,14.7,8.5,23.4
			c-1,8.7-6,16.4-13.6,20.8h7.7c3.6,0,6.9,2.3,8.1,5.7c1.2,3.4,0.2,7.3-2.5,9.6c2,1.7,3.1,4.1,3.1,6.6c0,2.6-1.1,5-3.1,6.6
			C77.7,158,78.7,162.1,77.1,165.6L77.1,165.6z M69.2,157.5H25.7c-2.5,0-4.6,2.1-4.6,4.6c0,2.5,2,4.6,4.6,4.6h43.5
			c2.5,0,4.6-2.1,4.6-4.6C73.7,159.6,71.7,157.5,69.2,157.5z M69.2,144.2H25.7c-2.5,0.1-4.5,2.1-4.5,4.6c0,2.5,2,4.5,4.5,4.6h43.5
			c2.5-0.1,4.5-2.1,4.5-4.6C73.7,146.3,71.7,144.3,69.2,144.2z M69.2,131l-43.5,0c-2.5,0.1-4.5,2.1-4.5,4.6s2,4.5,4.5,4.6h43.5
			c2.5-0.1,4.5-2.1,4.5-4.6S71.7,131,69.2,131L69.2,131z M64.2,86.1c-6.8-6.8-17-8.8-25.8-5.1c-8.8,3.7-14.6,12.3-14.6,21.9
			s5.8,18.2,14.6,21.9c8.9,3.7,19,1.6,25.8-5.1C73.4,110.4,73.4,95.4,64.2,86.1L64.2,86.1z M183,103.7c0-1.1-0.9-2.1-2.1-2.1h-67.9
			c-0.8,0-1.6,0.5-1.9,1.3c-0.3,0.8-0.1,1.7,0.4,2.2l48,48c0.8,0.8,2.1,0.8,2.9,0C175.7,140,183,122.2,183,103.7L183,103.7z
			 M173.9,128.8c3-7.3,4.7-15.2,5-23.1H118l43,43C166.5,142.9,170.9,136.2,173.9,128.8L173.9,128.8z M110.1,25.5
			c-0.6-0.1-1.1,0.1-1.6,0.5c-0.4,0.4-0.7,0.9-0.7,1.5v67.9c0,0.5,0.2,1.1,0.6,1.4c0.4,0.4,0.9,0.6,1.5,0.6h67.9
			c0.5,0,1.1-0.2,1.5-0.6c0.4-0.4,0.6-0.9,0.6-1.4c0-18.5-7.3-36.3-20.4-49.4C146.3,32.9,128.6,25.5,110.1,25.5L110.1,25.5z
			 M156.4,48.9c-11.8-11.9-27.8-18.8-44.5-19.3v63.8h63.8C175.2,76.6,168.3,60.7,156.4,48.9L156.4,48.9z"/>
	</g>
</g>
<g>
	<path class="st0" d="M57.2,111.3l2.7,2.7c-2.7,3.1-6.7,4.7-11.3,4.7c-7.5,0-13.4-4.5-15.2-11.1h-4.8v-2.4H33c0-0.6-0.1-1.1-0.1-1.7
		s0-1.2,0.1-1.7h-4.4v-2.4h4.8c1.8-6.6,7.7-11.1,15.2-11.1c4.6,0,8.6,1.6,11.3,4.6l-2.7,2.7c-2.3-2.4-5.1-3.5-8.4-3.5
		c-5.2,0-9.3,2.9-10.9,7.3h13.4v2.4h-14c-0.1,0.6-0.1,1.1-0.1,1.7s0,1.2,0.1,1.7h14v2.4H37.9c1.6,4.4,5.7,7.3,10.9,7.3
		C52.1,114.9,54.9,113.7,57.2,111.3z"/>
</g>
</svg>
