<?xml version="1.0" encoding="utf-8"?>
<!-- Generator: Adobe Illustrator 28.3.0, SVG Export Plug-In . SVG Version: 6.00 Build 0)  -->
<svg version="1.1" id="Capa_1" xmlns="http://www.w3.org/2000/svg" xmlns:xlink="http://www.w3.org/1999/xlink" x="0px" y="0px"
	 viewBox="0 0 110 135" style="enable-background:new 0 0 110 135;" xml:space="preserve">
<path d="M37.1,58h13.8c1.1,0,2,0.9,2,2v13.8c0,1.1-0.9,2-2,2H37.1c-1.1,0-2-0.9-2-2V60C35.1,58.9,36,58,37.1,58z M56.4,12.7
	l44.8,45.9c0.8,0.8,0.8,2.1,0,2.8c-0.4,0.4-0.9,0.6-1.4,0.6l-10.1,0v43.9c0,1.1-0.9,2-2,2H22.3c-1.1,0-2-0.9-2-2V62H10.3
	c-1.1,0-2-0.9-2-2c0-0.6,0.3-1.1,0.7-1.5l44.7-45.8C54.3,11.9,55.6,11.9,56.4,12.7L56.4,12.7L56.4,12.7z M95,58L55,17L15,58h7.3
	c1.1,0,2,0.9,2,2v43.9h61.3V60c0-1.1,0.9-2,2-2H95z M37.1,79.9h13.8c1.1,0,2,0.9,2,2v13.8c0,1.1-0.9,2-2,2H37.1c-1.1,0-2-0.9-2-2
	V81.9C35.1,80.8,36,79.9,37.1,79.9z M48.9,83.9h-9.8v9.8h9.8V83.9z M59.1,79.9h13.8c1.1,0,2,0.9,2,2v13.8c0,1.1-0.9,2-2,2H59.1
	c-1.1,0-2-0.9-2-2V81.9C57.1,80.8,58,79.9,59.1,79.9z M70.9,83.9h-9.8v9.8h9.8V83.9z M59.1,58h13.8c1.1,0,2,0.9,2,2v13.8
	c0,1.1-0.9,2-2,2H59.1c-1.1,0-2-0.9-2-2V60C57.1,58.9,58,58,59.1,58z M70.9,62h-9.8v9.8h9.8V62z M48.9,62h-9.8v9.8h9.8V62z"/>
</svg>
