<?xml version="1.0" encoding="utf-8"?>
<!-- Generator: Adobe Illustrator 28.3.0, SVG Export Plug-In . SVG Version: 6.00 Build 0)  -->
<svg version="1.1" id="Capa_1" xmlns="http://www.w3.org/2000/svg" xmlns:xlink="http://www.w3.org/1999/xlink" x="0px" y="0px"
	 viewBox="0 0 100 125" style="enable-background:new 0 0 100 125;" xml:space="preserve">
<path d="M47.2,82c1.2,2.8,0.8,5.6,0.6,7.5c-0.1,0.5-0.1,1-0.1,1.3v5c0,0.6-0.5,1.1-1.1,1.1s-1.1-0.5-1.1-1.1v-5c0-0.4,0.1-1,0.1-1.6
	c0.4-3.6,1-9.5-8.2-12c-0.1,0-0.2-0.1-0.3-0.1l-8.5-4.9c-3.6-2.1-6-1.4-7.1,0c-0.3,0.4-0.4,0.8-0.3,1.2c0.1,0.4,0.4,0.8,0.7,1
	l9.2,5.3c0.5,0.3,0.7,1,0.4,1.6c-0.3,0.5-1,0.7-1.6,0.4l-9.2-5.3c-1-0.6-1.6-1.5-1.9-2.6c-0.2-0.9,0-1.9,0.5-2.7l-7.1-12.3
	c-2.1-3.6-4.5-4.2-6.1-3.6c-0.4,0.2-0.7,0.5-0.9,0.9c-0.1,0.4-0.1,0.9,0.1,1.3l12.2,21.1c1,1.8,2.3,3,4,4l5.7,3.3
	c1.7,1,2.9,1.9,2.9,4.9v5c0,0.6-0.5,1.1-1.1,1.1S28,96.5,28,95.9v-5c0-2-0.4-2.2-1.7-3l-5.7-3.3c-2.1-1.2-3.6-2.8-4.8-4.8L3.5,58.7
	c-0.6-1-0.7-2.1-0.3-3.2s1.2-1.9,2.2-2.3c2.5-1,6.1-0.3,8.9,4.5l6.8,11.8c1.9-1.2,4.8-1.4,8.6,0.7l8.4,4.9
	C42.8,76.4,45.9,78.7,47.2,82z M96.8,55.5c-0.4-1-1.2-1.9-2.2-2.3c-2.5-1-6.1-0.3-8.9,4.5l-6.8,11.8c-1.9-1.2-4.8-1.4-8.6,0.7
	l-8.4,4.9c-4.7,1.3-7.8,3.6-9.1,6.9c-1.2,2.8-0.8,5.6-0.6,7.5c0.1,0.5,0.1,1,0.1,1.3v5c0,0.6,0.5,1.1,1.1,1.1s1.1-0.5,1.1-1.1v-5
	c0-0.4-0.1-1-0.1-1.6c-0.4-3.6-1-9.5,8.2-12c0.1,0,0.2-0.1,0.3-0.1l8.5-4.9c3.6-2.1,6-1.4,7.1,0c0.3,0.4,0.4,0.8,0.3,1.2
	s-0.4,0.8-0.7,1l-9.2,5.3c-0.5,0.3-0.7,1-0.4,1.6c0.3,0.5,1,0.7,1.6,0.4l9.2-5.3c1-0.6,1.6-1.5,1.9-2.6c0.2-0.9,0-1.9-0.5-2.7
	l7.1-12.3c2.1-3.6,4.5-4.2,6.1-3.6c0.4,0.2,0.7,0.5,0.9,0.9s0.1,0.9-0.1,1.3L82.3,78.6c-1,1.8-2.3,3-4,4l-5.7,3.3
	c-1.7,1-2.9,1.9-2.9,4.9v5c0,0.6,0.5,1.1,1.1,1.1s1.1-0.5,1.1-1.1v-5c0-2,0.4-2.2,1.7-3l5.7-3.3c2.1-1.2,3.6-2.8,4.8-4.8l12.2-21.1
	C97,57.7,97.1,56.5,96.8,55.5z M50.1,61.5c-0.1,0-0.2,0-0.3,0c-1.6,0-3-0.6-4.1-1.8L45.1,59l-6.5,11.3c-0.2,0.4-0.6,0.6-1,0.6
	c0,0,0,0-0.1,0c-0.4,0-0.8-0.3-1-0.7l-2.8-6.2l-6.7,0.7c-0.4,0-0.8-0.2-1.1-0.5s-0.2-0.8,0-1.2l6.2-10.8l0-0.2
	c-0.3-1.4-1.4-2.4-2.8-2.5l-0.7-0.1c-1.6-0.2-3.1-1.1-4-2.5c-0.9-1.4-1.1-3.1-0.6-4.7l0.5-1.7c0.4-1.4,0-2.7-1.1-3.6l-0.6-0.4
	c-1.3-1-2.1-2.5-2.2-4.2c-0.1-1.6,0.6-3.2,1.8-4.4l1.3-1.2c1-1,1.3-2.4,0.8-3.7l-0.3-0.6c-0.6-1.5-0.6-3.2,0.2-4.7
	c0.8-1.5,2.1-2.5,3.7-2.9l1.8-0.4c1.4-0.3,2.4-1.4,2.5-2.8l0.1-0.7c0.2-1.6,1.1-3.1,2.5-4c1.4-0.9,3.1-1.1,4.7-0.6l1.7,0.5
	c1.4,0.4,2.7,0,3.6-1.1l0.4-0.6c1-1.3,2.5-2.1,4.2-2.2c1.6-0.1,3.2,0.6,4.4,1.8l1.2,1.3c1,1,2.4,1.3,3.7,0.8l0.6-0.3
	c1.5-0.6,3.2-0.6,4.7,0.2c1.5,0.8,2.5,2.1,2.9,3.7l0.4,1.8c0.3,1.4,1.4,2.4,2.8,2.5l0.7,0.1c1.6,0.2,3.1,1.1,4,2.5
	c0.9,1.4,1.1,3.1,0.6,4.7L75.4,24c-0.4,1.4,0,2.7,1.1,3.6l0.6,0.4c1.3,1,2.1,2.5,2.2,4.2c0.1,1.6-0.6,3.2-1.8,4.4l-1.3,1.2
	c-1,1-1.3,2.4-0.8,3.7l0.3,0.6c0.6,1.5,0.6,3.2-0.2,4.7c-0.8,1.5-2.1,2.5-3.7,2.9l-1.8,0.4c-1,0.2-1.8,0.9-2.3,1.8L74,63.1
	c0.2,0.4,0.2,0.8,0,1.2s-0.7,0.6-1.1,0.5l-6.7-0.7l-2.8,6.2c-0.2,0.4-0.6,0.7-1,0.7c0,0,0,0-0.1,0c-0.4,0-0.8-0.2-1-0.6l-6.7-11.6
	c0,0,0,0,0,0l-0.4,0.6C53.2,60.6,51.7,61.4,50.1,61.5z M70.9,62.3l-4.1-7.2c-0.4,1-1.2,1.9-2.1,2.5c-1.4,0.9-3.1,1.1-4.7,0.6
	l-1.7-0.5c-0.5-0.2-1.1-0.2-1.6-0.1l5.6,9.7l2.2-4.9c0.2-0.5,0.7-0.7,1.2-0.7L70.9,62.3z M43.3,57.5c-0.8-0.3-1.7-0.3-2.5,0
	l-0.6,0.3c-1.5,0.6-3.2,0.6-4.7-0.2c-1-0.5-1.8-1.3-2.3-2.3l-4,7l5.3-0.6c0.5,0,1,0.2,1.2,0.7l2.2,4.9L43.3,57.5z M58.9,55.4
	l1.7,0.5c0.9,0.3,1.9,0.2,2.8-0.4c0.8-0.5,1.4-1.4,1.5-2.4l0.1-0.7c0.3-2.3,2-4.2,4.3-4.7l1.8-0.4c1-0.2,1.8-0.8,2.2-1.7
	c0.4-0.9,0.5-1.9,0.1-2.8l-0.3-0.6c-0.9-2.2-0.4-4.6,1.4-6.2l1.3-1.2c0.7-0.7,1.1-1.6,1.1-2.6c0-1-0.5-1.9-1.3-2.5l-0.6-0.4
	c-1.9-1.4-2.6-3.8-1.9-6.1l0.5-1.7c0.3-0.9,0.2-1.9-0.4-2.8S72,17.4,71,17.3l-0.7-0.1c-2.3-0.3-4.2-2-4.7-4.3l-0.4-1.8
	c-0.2-1-0.8-1.8-1.7-2.2c-0.9-0.4-1.9-0.5-2.8-0.1l-0.6,0.3c-2.2,0.9-4.6,0.4-6.2-1.4l-1.2-1.3C51.9,5.6,51,5.3,50,5.3
	c-1,0-1.9,0.5-2.5,1.3l-0.4,0.6c-1.4,1.9-3.8,2.6-6.1,1.9l-1.7-0.5c-0.9-0.3-1.9-0.2-2.8,0.4c-0.8,0.5-1.4,1.4-1.5,2.4L35,11.9
	c-0.3,2.3-2,4.2-4.3,4.7L28.9,17c-1,0.2-1.8,0.8-2.2,1.7c-0.4,0.9-0.5,1.9-0.1,2.8l0.3,0.6c0.9,2.2,0.4,4.6-1.4,6.2l-1.3,1.2
	c-0.7,0.7-1.1,1.6-1.1,2.6c0,1,0.5,1.9,1.3,2.5l0.6,0.4c1.9,1.4,2.6,3.8,1.9,6.1l-0.5,1.7c-0.3,0.9-0.2,1.9,0.4,2.8
	c0.5,0.8,1.4,1.4,2.4,1.5l0.7,0.1c2.3,0.3,4.2,2,4.7,4.3l0.4,1.8c0.2,1,0.8,1.8,1.7,2.2c0.9,0.4,1.9,0.5,2.8,0.1l0.6-0.3
	c0.7-0.3,1.4-0.4,2.1-0.4c1.5,0,3,0.6,4.1,1.8l1.2,1.3c0.7,0.7,1.6,1.1,2.6,1.1c1,0,1.9-0.5,2.5-1.3l0.4-0.6
	C54.3,55.5,56.7,54.7,58.9,55.4z M50,50.3c-9.9,0-18-8.1-18-18s8.1-18,18-18s18,8.1,18,18S59.9,50.3,50,50.3z M65.7,32.2
	c0-8.7-7.1-15.7-15.7-15.7s-15.7,7.1-15.7,15.7S41.3,48,50,48S65.7,40.9,65.7,32.2z M60.9,28.6c0.1,0.4,0,0.9-0.3,1.2L56,34l1.2,6.2
	c0.1,0.4-0.1,0.9-0.5,1.1c-0.2,0.1-0.4,0.2-0.7,0.2c-0.2,0-0.4,0-0.6-0.1L50,38.4l-5.5,3.1c-0.4,0.2-0.9,0.2-1.2-0.1
	c-0.4-0.3-0.5-0.7-0.5-1.1L44,34l-4.6-4.3c-0.3-0.3-0.4-0.8-0.3-1.2c0.1-0.4,0.5-0.7,1-0.8l6.3-0.8l2.7-5.7c0.2-0.4,0.6-0.7,1-0.7
	s0.8,0.3,1,0.7l2.7,5.7l6.3,0.8C60.4,27.8,60.8,28.1,60.9,28.6z M57.2,29.7l-4.5-0.5c-0.4,0-0.7-0.3-0.9-0.7L50,24.5l-1.9,4.1
	c-0.2,0.4-0.5,0.6-0.9,0.7l-4.5,0.5l3.3,3.1c0.3,0.3,0.4,0.7,0.3,1.1l-0.9,4.4l3.9-2.2c0.3-0.2,0.8-0.2,1.1,0l3.9,2.2l-0.9-4.4
	c-0.1-0.4,0.1-0.8,0.3-1.1L57.2,29.7z"/>
</svg>
