<?xml version="1.0" encoding="utf-8"?>
<!-- Generator: Adobe Illustrator 28.3.0, SVG Export Plug-In . SVG Version: 6.00 Build 0)  -->
<svg version="1.1" id="Capa_1" xmlns="http://www.w3.org/2000/svg" xmlns:xlink="http://www.w3.org/1999/xlink" x="0px" y="0px"
	 viewBox="0 0 100 125" style="enable-background:new 0 0 100 125;" xml:space="preserve">
<style type="text/css">
	.st0{fill:none;}
</style>
<g>
	<rect x="61" y="15.9" class="st0" width="3" height="16.4"/>
	<rect x="67.1" y="15.9" class="st0" width="3" height="16.4"/>
	<rect x="48.9" y="15.9" class="st0" width="3" height="16.4"/>
	<rect x="73.2" y="15.9" class="st0" width="2.4" height="16.4"/>
	<rect x="42.8" y="15.9" class="st0" width="3" height="16.4"/>
	<rect x="54.9" y="15.9" class="st0" width="3" height="16.4"/>
	<rect x="36.7" y="15.9" class="st0" width="3" height="16.4"/>
	<polygon class="st0" points="27.6,15.9 24.8,15.9 24.8,30.1 24.8,32.3 27.6,32.3 	"/>
	<path class="st0" d="M23.7,35.3c-2.4,2.5-3.7,6.1-3.7,9.8v43c0,7.4,5.3,13.5,11.7,13.5h36.5c6.5,0,11.7-6,11.7-13.5v-43
		c0-3.7-1.3-7.3-3.7-9.8H23.7z M67.1,73.9H55.9v11.2H44.6V73.9H33.3V62.6h11.2V51.4h11.3v11.2h11.2V73.9z"/>
	<rect x="30.6" y="15.9" class="st0" width="3" height="16.4"/>
	<polygon points="55.9,51.4 44.6,51.4 44.6,62.6 33.3,62.6 33.3,73.9 44.6,73.9 44.6,85.1 55.9,85.1 55.9,73.9 67.1,73.9 67.1,62.6 
		55.9,62.6 	"/>
	<path d="M78.6,33.4V12.9H21.8v20.1c-3.1,3.1-4.8,7.5-4.8,12.2v43c0,9.1,6.6,16.5,14.8,16.5h36.5c8.1,0,14.8-7.4,14.8-16.5v-43
		C83,40.7,81.4,36.5,78.6,33.4z M73.2,15.9h2.4v16.4h-2.4V15.9z M67.1,15.9h3v16.4h-3V15.9z M61,15.9h3v16.4h-3V15.9z M54.9,15.9h3
		v16.4h-3V15.9z M48.9,15.9h3v16.4h-3V15.9z M42.8,15.9h3v16.4h-3V15.9z M36.7,15.9h3v16.4h-3V15.9z M30.6,15.9h3v16.4h-3V15.9z
		 M24.8,30.1V15.9h2.7v16.4h-2.7V30.1z M80,88.2c0,7.4-5.3,13.5-11.7,13.5H31.7c-6.5,0-11.7-6-11.7-13.5v-43c0-3.8,1.3-7.3,3.7-9.8
		h52.5c2.4,2.5,3.7,6.1,3.7,9.8L80,88.2L80,88.2z"/>
</g>
</svg>
