<svg xmlns="http://www.w3.org/2000/svg" id="sv" width="180" height="180" viewBox="0 0 180 180"><path id="0" fill="#cccccc" d="M90, 0 A90,90 0 0 1 167.94097731068484,44.99773276983361 L115.98032577022829,74.9992442566112 A30,30 0 0 0 90,60 Z"></path><path id="1" fill="#f50528" d="M167.94097731068484, 44.99773276983361 A90,90 0 0 1 153.6437753732349,153.6354449677318 L111.21459179107829,111.21181498924393 A30,30 0 0 0 115.98032577022829,74.9992442566112 Z"></path><path id="2" fill="#8e6524" d="M153.6437753732349, 153.6354449677318 A90,90 0 0 1 45.007935605427555,167.9468674259245 L75.00264520180919,115.98228914197483 A30,30 0 0 0 111.21459179107829,111.21181498924393 Z"></path><path id="3" fill="#3b704b" d="M45.007935605427555, 167.9468674259245 A90,90 0 0 1 3.063457927127672,66.71829790561482 L61.02115264237589,82.23943263520493 A30,30 0 0 0 75.00264520180919,115.98228914197483 Z"></path><path id="4" fill="#9607c1" d="M3.063457927127672, 66.71829790561482 A90,90 0 0 1 89.98429203681187,0.0000013707783779182137 L89.99476401227062,60.00000045692613 A30,30 0 0 0 61.02115264237589,82.23943263520493 Z"></path></svg>