<?xml version="1.0" encoding="UTF-8"?>
<svg id="Capa_1" data-name="Capa 1" xmlns="http://www.w3.org/2000/svg" viewBox="0 0 200 200">
  <defs>
    <style>
      .cls-1 {
        fill: #000;
        stroke-width: 0px;
      }
    </style>
  </defs>
  <path class="cls-1" d="M43.77,113.63c-.96.75-2.34.59-3.09-.36-.75-.96-.59-2.34.36-3.09l6.01-4.74c.95-.75,2.34-.6,3.09.36.75.96.59,2.34-.37,3.09l-6.01,4.74ZM54.47,105.19c-.95.75-2.34.59-3.09-.37-.75-.95-.59-2.34.37-3.09l11.13-8.78c.96-.75,2.34-.59,3.09.37.75.96.59,2.34-.36,3.09l-11.13,8.78ZM69.97,92.96c-.96.75-2.34.59-3.09-.36-.75-.96-.59-2.34.36-3.09l33.2-26.19c.95-.75,2.34-.59,3.08.36.76.96.6,2.34-.36,3.09l-33.2,26.19ZM135.5,20.44l4.71,14.61,15.38-.03c2.12,0,3.01,2.73,1.29,3.98h0l-12.44,9.01,4.77,14.6c.65,1.99-1.66,3.82-3.52,2.36l-12.28-8.97-12.41,9.06c-1.72,1.25-4.04-.44-3.38-2.46h0l4.78-14.6-12.45-9.01c-1.7-1.23-.89-4.07,1.45-3.98l15.21.03,4.72-14.62c.66-2.04,3.56-2.02,4.2.01h0ZM136.51,37.94l-3.12-9.65-3.12,9.65h0c-.29.88-1.11,1.53-2.1,1.53l-10.14-.02,8.22,5.95c.75.54,1.1,1.53.8,2.47l-3.15,9.65,8.16-5.96c.75-.57,1.82-.62,2.62-.03l8.2,5.98-3.14-9.57c-.33-.91-.04-1.96.78-2.55l8.22-5.95-10.05.02c-.97.04-1.89-.56-2.2-1.53h0ZM121.96,176.67h22.86v-98.4h-22.86v98.4ZM117.55,94.61v-18.55c0-1.22.98-2.21,2.21-2.21h27.28c1.21,0,2.21.98,2.21,2.21v102.83c0,1.21-.99,2.21-2.21,2.21H37.92c-1.22,0-2.21-.99-2.21-2.21v-36.28c0-1.22.98-2.21,2.21-2.21h25.06v-21.16c0-1.21.99-2.21,2.22-2.21h25.06v-20.21c0-1.22.99-2.21,2.21-2.21h25.08ZM117.55,99.02h-22.87v77.64h22.87v-77.64ZM90.27,121.44h-22.86v55.22h22.86v-55.22ZM62.99,144.81h-22.86v31.86h22.86v-31.86Z"/>
</svg>