<?xml version="1.0" encoding="UTF-8"?>
<svg id="Capa_1" data-name="Capa 1" xmlns="http://www.w3.org/2000/svg" viewBox="0 0 200 200">
  <defs>
    <style>
      .cls-1 {
        fill: #000;
        stroke-width: 0px;
      }
    </style>
  </defs>
  <path class="cls-1" d="M169.62,38.73v34.95c0,2.6-2.12,4.72-4.72,4.72h-4.58c-1.7,0-3.19-.91-4.02-2.26-3.5,2.01-7.5,3.09-11.55,3.09h-14.99c-2.37,14.55-14.55,25.86-29.5,26.88v20.44c.74-.34,1.55-.73,2.41-1.17,4.47-19.11,16.6-19.3,26.4-19.45,4.78-.07,9.3-.14,12.21-2.38.72-.55,1.7-.61,2.47-.15.78.46,1.2,1.35,1.06,2.24-1.52,9.93-6.66,17.89-14.47,22.4-4.34,2.51-9.18,3.77-14.24,3.77-3.88,0-7.89-.75-11.89-2.24-1.46.73-2.77,1.34-3.96,1.8v6.33c3.83.36,7.22,3.05,8.27,6.98.18.65.28,1.31.31,1.96l17.29-9.98c1.94-1.12,4.2-1.41,6.37-.83,2.17.58,3.98,1.97,5.1,3.91,1.12,1.94,1.41,4.2.83,6.37-.58,2.17-1.97,3.98-3.91,5.1l-40.9,23.61c-2.11,1.22-4.32,1.83-6.6,1.83-1.18,0-2.37-.16-3.58-.49-1.36-.36-2.63-.73-3.85-1.08-6.58-1.88-11.49-3.27-19.13-1.67.22,1.74-.87,3.43-2.61,3.9l-5.45,1.46c-.31.08-.62.12-.93.12-.62,0-1.23-.16-1.78-.48-.83-.48-1.42-1.25-1.66-2.17l-9.77-36.46c-.25-.92-.12-1.88.36-2.71.48-.83,1.25-1.42,2.17-1.66l5.45-1.46c1.9-.51,3.86.62,4.37,2.52h0l.08.29c3.2-.65,5.95-1.68,8.42-2.61,4.71-1.77,8.77-3.29,12.93-.9l9.88,5.7c2.42,1.4,4.91,1.72,7.6,1l6.31-1.69v-6.91c-1.19-.46-2.5-1.07-3.96-1.8-4,1.49-8,2.24-11.89,2.24-5.06,0-9.9-1.26-14.24-3.77-7.81-4.51-12.95-12.47-14.47-22.4-.14-.89.28-1.78,1.06-2.24.78-.46,1.76-.4,2.47.15,2.92,2.24,7.43,2.31,12.21,2.38,9.8.15,21.93.34,26.4,19.45.87.44,1.67.83,2.41,1.17v-20.44c-16.69-1.14-29.92-15.08-29.92-32.06s14.42-32.14,32.14-32.14c2.82,0,5.6.38,8.29,1.1l13.47-12.34c2.76-2.53,6.68-3.01,9.97-1.21,7.64,4.17,15.08,7.11,26.05,7.86.6-1.91,2.39-3.3,4.5-3.3h4.58c2.6,0,4.72,2.11,4.72,4.71ZM86.32,126.62c-.15-.08-.3-.16-.46-.25-3.07-1.65-6.54-3.53-10.69-5.62-1.09-.55-1.53-1.88-.98-2.97.55-1.09,1.88-1.53,2.97-.98,4.21,2.12,7.71,4.01,10.8,5.67.01,0,.02.01.04.02-4.18-11.89-12.4-12.02-21.04-12.15-3.52-.05-7.13-.11-10.35-1.07,1.94,6.55,5.88,11.75,11.35,14.91,5.41,3.12,11.8,3.94,18.36,2.43ZM55.88,173.24l-.24-.91h0l-9.08-33.89-3.79,1.02,9.33,34.8,3.79-1.02ZM98.08,142.24l-7.41,1.99c-3.84,1.03-7.52.54-10.96-1.44l-9.88-5.7c-2.24-1.29-4.68-.48-9.16,1.21-2.45.92-5.39,2.02-8.83,2.75l7.52,28.07c8.81-1.89,14.45-.29,21.46,1.71,1.21.35,2.46.7,3.79,1.06,2.42.65,4.66.36,6.83-.9l40.9-23.62c.91-.53,1.57-1.38,1.84-2.41s.14-2.1-.39-3.01c-.53-.91-1.38-1.57-2.41-1.84s-2.1-.14-3.01.39l-21.42,12.37c-1.23,1.62-2.98,2.86-5.09,3.43l-10.84,2.91c-1.29.35-2.58.52-3.84.52s-2.39-.16-3.56-.47c-1.18-.32-1.88-1.53-1.56-2.71.32-1.18,1.53-1.88,2.71-1.56,1.63.44,3.34.42,5.11-.05l10.84-2.91c1.18-.32,2.15-1.03,2.81-1.96.02-.03.04-.06.06-.09.79-1.17,1.1-2.66.7-4.13-.72-2.69-3.49-4.29-6.18-3.57ZM108.11,122.5s.03-.01.04-.02c3.09-1.67,6.6-3.56,10.8-5.67,1.09-.55,2.42-.11,2.97.98.55,1.09.11,2.42-.98,2.97-4.15,2.09-7.63,3.96-10.69,5.62-.16.08-.31.17-.46.25,6.56,1.52,12.95.7,18.35-2.42,5.47-3.16,9.4-8.37,11.35-14.91-3.22.96-6.82,1.01-10.35,1.07-8.64.13-16.86.26-21.04,12.15ZM125.76,74.05c0-1.36-.1-2.71-.3-4.05l-1.85,1.07c-.79.46-1.62.78-2.46,1,.06.66.09,1.32.09,1.98,0,12.79-10.4,23.19-23.19,23.19s-23.19-10.4-23.19-23.19,10.4-23.19,23.19-23.19c5.19,0,10.15,1.71,14.2,4.86.53-.49,1.11-.93,1.75-1.3l2.23-1.29c-5.03-4.4-11.39-6.79-18.18-6.79-15.28,0-27.71,12.43-27.71,27.71s12.43,27.71,27.71,27.71,27.71-12.43,27.71-27.71ZM110.48,67.56c-1.28-2.22-1.62-4.81-.95-7.29.08-.29.17-.56.27-.84-3.32-2.68-7.44-4.14-11.75-4.14-10.35,0-18.76,8.42-18.76,18.76s8.42,18.76,18.76,18.76,18.76-8.42,18.76-18.76c0-.65-.04-1.29-.1-1.93-2.54-.57-4.83-2.15-6.23-4.57ZM144.76,74.81c3.93,0,7.66-1.2,10.85-3.46v-29.61c-11.81-.79-19.78-3.94-27.95-8.4-1.63-.89-3.49-.66-4.86.59l-11.73,10.75c3.37,1.49,6.49,3.56,9.19,6.14l7.03-4.06c1.06-.61,2.41-.25,3.02.81s.25,2.41-.81,3.02l-13.28,7.67c-1.19.69-2.05,1.81-2.41,3.15-.36,1.34-.18,2.74.51,3.93,1.43,2.48,4.61,3.33,7.08,1.9l19.65-11.34c1.06-.61,2.41-.25,3.02.81.61,1.06.25,2.41-.81,3.02l-13.72,7.92c.42,2.1.64,4.24.64,6.4,0,.25,0,.5,0,.75h14.58ZM165.2,38.73c0-.15-.14-.29-.29-.29h-4.58c-.15,0-.29.14-.29.29v34.95c0,.15.14.29.29.29h4.58c.15,0,.29-.14.29-.29v-34.95ZM104.54,80.55l1.99,1.96c-1.96,2.24-4.91,3.42-8.3,3.42-5.47,0-9.82-3.26-11.12-8.11h-3.54v-1.74h3.23c-.03-.4-.06-.84-.06-1.27s.03-.87.06-1.27h-3.23v-1.74h3.54c1.31-4.85,5.66-8.11,11.12-8.11,3.39,0,6.34,1.15,8.3,3.39l-1.99,1.96c-1.68-1.77-3.76-2.58-6.15-2.58-3.82,0-6.84,2.14-7.99,5.34h9.85v1.74h-10.28c-.06.4-.09.84-.09,1.27s.03.87.09,1.27h10.28v1.74h-9.85c1.15,3.2,4.16,5.34,7.99,5.34,2.39,0,4.47-.84,6.15-2.61Z"/>
</svg>