<?xml version="1.0" encoding="UTF-8"?>
<svg id="Capa_1" data-name="Capa 1" xmlns="http://www.w3.org/2000/svg" xmlns:xlink="http://www.w3.org/1999/xlink" version="1.1" viewBox="0 0 31 32">
  <defs>
    <style>
      .cls-1 {
        mask: url(#mask);
      }

      .cls-2 {
        fill: #d9d9d9;
      }

      .cls-2, .cls-3 {
        stroke-width: 0px;
      }

      .cls-3 {
        fill: #dedde3;
      }
    </style>
    <mask id="mask" x="0" y=".5" width="30.7" height="30.7" maskUnits="userSpaceOnUse">
      <g id="mask0_2_68" data-name="mask0 2 68">
        <rect class="cls-2" y=".5" width="30.7" height="30.7"/>
      </g>
    </mask>
  </defs>
  <g class="cls-1">
    <path class="cls-3" d="M7.2,26.1c-.6,0-1.1-.2-1.5-.6-.4-.4-.6-.9-.6-1.5V7.7c0-.6.2-1.1.6-1.5.4-.4.9-.6,1.5-.6h16.3c.6,0,1.1.2,1.5.6.4.4.6.9.6,1.5v16.3c0,.6-.2,1.1-.6,1.5s-.9.6-1.5.6H7.2ZM7.2,24.8h16.3c.2,0,.4,0,.6-.2.1-.1.2-.3.2-.6v-3.5h-4.6c-.5.8-1.1,1.4-1.9,1.9-.8.4-1.6.7-2.5.7s-1.7-.2-2.5-.7c-.8-.4-1.4-1.1-1.9-1.9h-4.6v3.5c0,.2,0,.4.2.6.1.1.3.2.6.2ZM15.3,21.7c.8,0,1.5-.2,2.2-.7.7-.5,1.1-1.1,1.4-1.9h5.4V7.7c0-.2,0-.4-.2-.6-.1-.1-.3-.2-.6-.2H7.2c-.2,0-.4,0-.6.2-.1.1-.2.3-.2.6v11.5h5.4c.3.8.7,1.4,1.4,1.9.7.5,1.4.7,2.2.7ZM7.2,24.8h-.8,17.9H7.2Z"/>
  </g>
</svg>