<?xml version="1.0" encoding="utf-8"?>
<!-- Generator: $$$/GeneralStr/196=Adobe Illustrator 27.6.0, SVG Export Plug-In . SVG Version: 6.00 Build 0)  -->
<svg version="1.1" id="Capa_1" xmlns="http://www.w3.org/2000/svg" xmlns:xlink="http://www.w3.org/1999/xlink" x="0px" y="0px"
	 viewBox="0 0 387 113.6" style="enable-background:new 0 0 387 113.6;" xml:space="preserve">
<style type="text/css">
	.st0{fill:#FFFFFF;}
</style>
<g>
	<polygon class="st0" points="298.6,8.2 305.7,8.2 323.2,72.9 305.5,72.9 293.8,30.1 	"/>
	<polygon class="st0" points="292.2,36.9 301.7,72.9 284.2,72.9 	"/>
	<polygon class="st0" points="320.1,8.2 327.2,8.2 344.7,72.9 326.9,72.9 315.3,30.1 	"/>
	<polygon class="st0" points="377.6,8.2 373.8,25.2 356.9,25.2 352.2,8.2 	"/>
	<polygon class="st0" points="373.1,28.7 369.2,45.9 362.4,45.9 357.8,28.7 	"/>
	<polygon class="st0" points="348.6,8.2 366.1,72.9 348.3,72.9 330.6,8.2 	"/>
	<polygon class="st0" points="221.4,8.1 157.2,8.1 154.5,20.1 178.2,20.1 166.3,73.3 182.7,73.3 194.7,20.1 218.6,20.1 	"/>
	<path class="st0" d="M278.9,12.9c-8.7-5.5-15.6-5.7-21.6-5.9C230.1,6.4,210,25,208.4,46c-1.3,16.7,11.2,28,33,27.6
		c11.5-0.2,18-2.4,26.6-6.2l3.3-15.2c-10.4,5.4-19.2,7.9-27.2,7.9c-6.6,0-18.5-4.5-18-15.2c0.5-11.3,7.3-23.9,30.3-24
		c5.7,0,11.9,1.2,19.4,6.8L278.9,12.9z"/>
	<polygon class="st0" points="97.5,8.1 81.3,8.1 66.7,73.3 83,73.3 	"/>
	<polygon class="st0" points="49.5,8.1 46.9,20.2 71.7,20.2 74.4,8.1 	"/>
	<polygon class="st0" points="44.1,33.5 41.3,45.6 62.7,45.6 65.5,33.5 	"/>
	<polygon class="st0" points="45.9,8.1 28.9,8.1 14.5,73.4 31.4,73.4 	"/>
	<polygon class="st0" points="86.9,73.4 122.8,8 128.2,27.9 117.1,48.5 133.8,48.5 136.9,60.3 110.8,60.3 103.8,73.4 	"/>
	<polygon class="st0" points="126.5,8 144.3,73.2 161.4,73.2 142.8,8 	"/>
	<path class="st0" d="M25,86.3l-0.7,2.8C23.2,88.3,22,88,20.6,88c-1.2,0-2.1,0.3-2.9,0.9c-0.7,0.6-1.2,1.3-1.2,2.3
		c0,0.5,0.1,0.9,0.4,1.5c0.3,0.5,1.2,1.4,2.7,2.6c1.5,1.2,2.5,2.3,2.9,3.2c0.4,0.9,0.6,1.8,0.5,2.8c-0.1,1.5-0.8,2.7-2.1,3.8
		c-1.3,1.1-2.9,1.6-4.8,1.6c-1.7,0-3.4-0.5-5.1-1.5l0.7-3c1.9,1.3,3.5,2,4.9,2c0.8,0,1.5-0.2,2.2-0.7c0.7-0.5,1.1-1.1,1.2-1.9
		c0-0.5-0.1-1.1-0.4-1.6s-1.2-1.5-2.7-2.7c-1.5-1.2-2.5-2.3-2.9-3.2c-0.4-0.9-0.6-1.8-0.5-2.7c0.1-1.6,0.9-2.9,2.4-4
		c1.5-1.1,3.2-1.6,5-1.6C22.4,85.5,23.7,85.7,25,86.3"/>
	<polygon class="st0" points="79.9,85.7 79.3,88.2 70.6,88.2 69.1,94.6 76.8,94.6 76.2,97.1 68.5,97.1 66.9,103.8 75.9,103.8 
		75.3,106.3 63.5,106.3 68.4,85.7 	"/>
	<path class="st0" d="M136,97.4l-1.8,7.4c-2.5,1.2-4.8,1.8-7.2,1.8c-2.8,0-4.9-0.9-6.4-2.6c-1.5-1.7-2.1-3.9-1.9-6.4
		c0.3-3.3,1.8-6.1,4.6-8.5c2.8-2.4,6.6-3.6,11.3-3.6c0.9,0,2.2,0.1,3.7,0.3l-0.6,2.5c-1.7-0.2-3-0.3-3.8-0.3c-3.5,0-6.4,1-8.6,2.9
		c-2.2,1.9-3.4,4.1-3.6,6.6c-0.2,2,0.3,3.6,1.3,4.8c1.1,1.2,2.5,1.9,4.4,1.9c1.4,0,2.8-0.3,4.2-1l0.8-3.6h-3.1l0.5-2.2H136z"/>
	<path class="st0" d="M196.7,85.7l-3,12.7c-0.6,2.7-1.8,4.7-3.4,6.1c-1.7,1.4-3.8,2.1-6.3,2.1c-2.3,0-4-0.6-5.3-1.7
		c-1.2-1.2-1.8-2.7-1.6-4.6c0-0.4,0.1-0.8,0.2-1.2l3.1-13.2h2.9l-3.2,13.5c-0.1,0.3-0.1,0.6-0.1,0.8c-0.1,1.3,0.2,2.3,1.1,3
		c0.8,0.7,1.9,1.1,3.3,1.1c1.2,0,2.3-0.3,3.3-0.8c1-0.5,1.7-1.2,2.1-2c0.4-0.8,0.8-2,1.2-3.7l2.8-11.8H196.7z"/>
	<path class="st0" d="M241.6,88.2l-1.5,6.6h1.5c1.6,0,2.9-0.3,3.8-1c0.9-0.7,1.4-1.5,1.5-2.6c0.2-2-1-3-3.7-3H241.6z M239.2,85.7
		h3.9c2.9,0,4.8,0.5,5.7,1.6c0.9,1.1,1.3,2.4,1.2,4c-0.1,1.2-0.6,2.3-1.4,3.2c-0.9,0.9-2,1.5-3.4,1.9c0.6,0.4,1.1,1.1,1.6,2.3
		l3.2,7.7h-3.1l-2.1-4.9c-0.7-1.5-1.2-2.6-1.7-3.2c-0.5-0.6-1.3-0.9-2.4-0.9h-1.1l-2.1,9.1h-3L239.2,85.7z"/>
	<path class="st0" d="M297.5,104.1c2,0,3.8-1,5.5-3.1c1.7-2,2.6-4.5,2.9-7.4c0.2-1.8-0.2-3.2-0.9-4.2c-0.8-1-1.9-1.5-3.3-1.5
		c-2.2,0-4.1,1.1-5.7,3.2c-1.6,2.1-2.5,4.5-2.7,7.2c-0.2,1.8,0.2,3.2,1,4.3C294.9,103.6,296,104.1,297.5,104.1 M301.8,85.5
		c2.3,0,4.1,0.8,5.3,2.4c1.3,1.6,1.8,3.7,1.6,6.3c-0.3,3.6-1.6,6.5-3.9,8.9c-2.3,2.4-4.8,3.6-7.7,3.6c-2.3,0-4-0.8-5.3-2.4
		c-1.3-1.6-1.9-3.7-1.6-6.2c0.3-3.2,1.5-6,3.7-8.6C296.1,86.7,298.8,85.5,301.8,85.5"/>
	<path class="st0" d="M362.9,86.3l-0.7,2.8c-1.1-0.7-2.3-1.1-3.7-1.1c-1.2,0-2.1,0.3-2.9,0.9c-0.7,0.6-1.2,1.3-1.2,2.3
		c0,0.5,0.1,0.9,0.4,1.5c0.3,0.5,1.2,1.4,2.7,2.6c1.5,1.2,2.5,2.3,2.9,3.2c0.4,0.9,0.6,1.8,0.5,2.8c-0.1,1.5-0.8,2.7-2.1,3.8
		c-1.3,1.1-2.9,1.6-4.8,1.6c-1.7,0-3.4-0.5-5.1-1.5l0.7-3c1.9,1.3,3.5,2,4.9,2c0.8,0,1.5-0.2,2.2-0.7c0.7-0.5,1.1-1.1,1.2-1.9
		c0-0.5-0.1-1.1-0.4-1.6s-1.2-1.5-2.7-2.7c-1.5-1.2-2.5-2.3-2.9-3.2c-0.4-0.9-0.6-1.8-0.5-2.7c0.1-1.6,0.9-2.9,2.4-4
		c1.5-1.1,3.2-1.6,5-1.6C360.3,85.5,361.6,85.7,362.9,86.3"/>
</g>
</svg>
