<?xml version="1.0" encoding="UTF-8"?>
<svg id="Capa_1" data-name="Capa 1" xmlns="http://www.w3.org/2000/svg" version="1.1" viewBox="0 0 387 113.6">
  <defs>
    <style>
      .cls-1 {
        fill: #3b6dac;
        stroke-width: 0px;
      }
    </style>
  </defs>
  <polygon class="cls-1" points="298.6 8.2 305.7 8.2 323.2 72.9 305.5 72.9 293.8 30.1 298.6 8.2"/>
  <polygon class="cls-1" points="292.2 36.9 301.7 72.9 284.2 72.9 292.2 36.9"/>
  <polygon class="cls-1" points="320.1 8.2 327.2 8.2 344.7 72.9 326.9 72.9 315.3 30.1 320.1 8.2"/>
  <polygon class="cls-1" points="377.6 8.2 373.8 25.2 356.9 25.2 352.2 8.2 377.6 8.2"/>
  <polygon class="cls-1" points="373.1 28.7 369.2 45.9 362.4 45.9 357.8 28.7 373.1 28.7"/>
  <polygon class="cls-1" points="348.6 8.2 366.1 72.9 348.3 72.9 330.6 8.2 348.6 8.2"/>
  <polygon class="cls-1" points="221.4 8.1 157.2 8.1 154.5 20.1 178.2 20.1 166.3 73.3 182.7 73.3 194.7 20.1 218.6 20.1 221.4 8.1"/>
  <path class="cls-1" d="M278.9,12.9c-8.7-5.5-15.6-5.7-21.6-5.9-27.2-.6-47.3,18-48.9,39-1.3,16.7,11.2,28,33,27.6,11.5-.2,18-2.4,26.6-6.2l3.3-15.2c-10.4,5.4-19.2,7.9-27.2,7.9s-18.5-4.5-18-15.2c.5-11.3,7.3-23.9,30.3-24,5.7,0,11.9,1.2,19.4,6.8l3.1-14.8Z"/>
  <polygon class="cls-1" points="97.5 8.1 81.3 8.1 66.7 73.3 83 73.3 97.5 8.1"/>
  <polygon class="cls-1" points="49.5 8.1 46.9 20.2 71.7 20.2 74.4 8.1 49.5 8.1"/>
  <polygon class="cls-1" points="44.1 33.5 41.3 45.6 62.7 45.6 65.5 33.5 44.1 33.5"/>
  <polygon class="cls-1" points="45.9 8.1 28.9 8.1 14.5 73.4 31.4 73.4 45.9 8.1"/>
  <polygon class="cls-1" points="86.9 73.4 122.8 8 128.2 27.9 117.1 48.5 133.8 48.5 136.9 60.3 110.8 60.3 103.8 73.4 86.9 73.4"/>
  <polygon class="cls-1" points="126.5 8 144.3 73.2 161.4 73.2 142.8 8 126.5 8"/>
  <path class="cls-1" d="M25,86.3l-.7,2.8c-1.1-.8-2.3-1.1-3.7-1.1s-2.1.3-2.9.9c-.7.6-1.2,1.3-1.2,2.3s.1.9.4,1.5c.3.5,1.2,1.4,2.7,2.6s2.5,2.3,2.9,3.2c.4.9.6,1.8.5,2.8-.1,1.5-.8,2.7-2.1,3.8-1.3,1.1-2.9,1.6-4.8,1.6s-3.4-.5-5.1-1.5l.7-3c1.9,1.3,3.5,2,4.9,2s1.5-.2,2.2-.7,1.1-1.1,1.2-1.9c0-.5-.1-1.1-.4-1.6s-1.2-1.5-2.7-2.7-2.5-2.3-2.9-3.2-.6-1.8-.5-2.7c.1-1.6.9-2.9,2.4-4s3.2-1.6,5-1.6c1.5-.3,2.8-.1,4.1.5"/>
  <polygon class="cls-1" points="79.9 85.7 79.3 88.2 70.6 88.2 69.1 94.6 76.8 94.6 76.2 97.1 68.5 97.1 66.9 103.8 75.9 103.8 75.3 106.3 63.5 106.3 68.4 85.7 79.9 85.7"/>
  <path class="cls-1" d="M136,97.4l-1.8,7.4c-2.5,1.2-4.8,1.8-7.2,1.8s-4.9-.9-6.4-2.6-2.1-3.9-1.9-6.4c.3-3.3,1.8-6.1,4.6-8.5,2.8-2.4,6.6-3.6,11.3-3.6s2.2,0,3.7.3l-.6,2.5c-1.7-.2-3-.3-3.8-.3-3.5,0-6.4,1-8.6,2.9s-3.4,4.1-3.6,6.6c-.2,2,.3,3.6,1.3,4.8,1.1,1.2,2.5,1.9,4.4,1.9s2.8-.3,4.2-1l.8-3.6h-3.1l.5-2.2h6.2Z"/>
  <path class="cls-1" d="M196.7,85.7l-3,12.7c-.6,2.7-1.8,4.7-3.4,6.1-1.7,1.4-3.8,2.1-6.3,2.1s-4-.6-5.3-1.7c-1.2-1.2-1.8-2.7-1.6-4.6,0-.4.1-.8.2-1.2l3.1-13.2h2.9l-3.2,13.5c-.1.3-.1.6-.1.8-.1,1.3.2,2.3,1.1,3,.8.7,1.9,1.1,3.3,1.1s2.3-.3,3.3-.8,1.7-1.2,2.1-2c.4-.8.8-2,1.2-3.7l2.8-11.8h2.9v-.3Z"/>
  <path class="cls-1" d="M241.6,88.2l-1.5,6.6h1.5c1.6,0,2.9-.3,3.8-1,.9-.7,1.4-1.5,1.5-2.6.2-2-1-3-3.7-3h-1.6ZM239.2,85.7h3.9c2.9,0,4.8.5,5.7,1.6s1.3,2.4,1.2,4c-.1,1.2-.6,2.3-1.4,3.2-.9.9-2,1.5-3.4,1.9.6.4,1.1,1.1,1.6,2.3l3.2,7.7h-3.1l-2.1-4.9c-.7-1.5-1.2-2.6-1.7-3.2s-1.3-.9-2.4-.9h-1.1l-2.1,9.1h-3l4.7-20.8Z"/>
  <path class="cls-1" d="M297.5,104.1c2,0,3.8-1,5.5-3.1,1.7-2,2.6-4.5,2.9-7.4.2-1.8-.2-3.2-.9-4.2-.8-1-1.9-1.5-3.3-1.5-2.2,0-4.1,1.1-5.7,3.2s-2.5,4.5-2.7,7.2c-.2,1.8.2,3.2,1,4.3.6,1,1.7,1.5,3.2,1.5M301.8,85.5c2.3,0,4.1.8,5.3,2.4,1.3,1.6,1.8,3.7,1.6,6.3-.3,3.6-1.6,6.5-3.9,8.9s-4.8,3.6-7.7,3.6-4-.8-5.3-2.4-1.9-3.7-1.6-6.2c.3-3.2,1.5-6,3.7-8.6,2.2-2.8,4.9-4,7.9-4"/>
  <path class="cls-1" d="M362.9,86.3l-.7,2.8c-1.1-.7-2.3-1.1-3.7-1.1s-2.1.3-2.9.9c-.7.6-1.2,1.3-1.2,2.3s.1.9.4,1.5c.3.5,1.2,1.4,2.7,2.6s2.5,2.3,2.9,3.2c.4.9.6,1.8.5,2.8-.1,1.5-.8,2.7-2.1,3.8-1.3,1.1-2.9,1.6-4.8,1.6s-3.4-.5-5.1-1.5l.7-3c1.9,1.3,3.5,2,4.9,2s1.5-.2,2.2-.7,1.1-1.1,1.2-1.9c0-.5-.1-1.1-.4-1.6s-1.2-1.5-2.7-2.7-2.5-2.3-2.9-3.2c-.4-.9-.6-1.8-.5-2.7.1-1.6.9-2.9,2.4-4s3.2-1.6,5-1.6c1.5-.3,2.8-.1,4.1.5"/>
</svg>