<?xml version="1.0" encoding="utf-8"?>
<!-- Generator: Adobe Illustrator 28.3.0, SVG Export Plug-In . SVG Version: 6.00 Build 0)  -->
<svg version="1.1" id="Capa_1" xmlns="http://www.w3.org/2000/svg" xmlns:xlink="http://www.w3.org/1999/xlink" x="0px" y="0px"
	 viewBox="0 0 200 200" style="enable-background:new 0 0 200 200;" xml:space="preserve">
<style type="text/css">
	.st0{fill:#FFFFFF;}
	.st1{fill-rule:evenodd;clip-rule:evenodd;fill:#FFFFFF;}
</style>
<g>
	<path class="st0" d="M-464.5,113.6c-1,0.8-2.3,0.6-3.1-0.4c-0.8-1-0.6-2.3,0.4-3.1l6-4.7c0.9-0.8,2.3-0.6,3.1,0.4
		c0.7,1,0.6,2.3-0.4,3.1L-464.5,113.6z M-453.8,105.2c-0.9,0.7-2.3,0.6-3.1-0.4c-0.7-0.9-0.6-2.3,0.4-3.1l11.1-8.8
		c1-0.7,2.3-0.6,3.1,0.4c0.8,1,0.6,2.3-0.4,3.1L-453.8,105.2z M-438.3,93c-1,0.8-2.3,0.6-3.1-0.4c-0.8-1-0.6-2.3,0.4-3.1l33.2-26.2
		c0.9-0.8,2.3-0.6,3.1,0.4c0.8,1,0.6,2.3-0.4,3.1L-438.3,93z M-372.7,20.4l4.7,14.6l15.4,0c2.1,0,3,2.7,1.3,4l0,0l-12.4,9l4.8,14.6
		c0.7,2-1.7,3.8-3.5,2.4l-12.3-9l-12.4,9.1c-1.7,1.2-4-0.4-3.4-2.5h0l4.8-14.6l-12.4-9c-1.7-1.2-0.9-4.1,1.5-4l15.2,0l4.7-14.6
		C-376.3,18.4-373.4,18.4-372.7,20.4L-372.7,20.4z M-371.7,37.9l-3.1-9.7l-3.1,9.7l0,0c-0.3,0.9-1.1,1.5-2.1,1.5l-10.1,0l8.2,5.9
		c0.8,0.5,1.1,1.5,0.8,2.5l-3.2,9.7l8.2-6c0.7-0.6,1.8-0.6,2.6,0l8.2,6l-3.1-9.6c-0.3-0.9,0-2,0.8-2.5l8.2-5.9l-10,0
		C-370.5,39.5-371.4,38.9-371.7,37.9L-371.7,37.9z M-386.3,176.7h22.9V78.3h-22.9V176.7z M-390.7,94.6V76.1c0-1.2,1-2.2,2.2-2.2
		h27.3c1.2,0,2.2,1,2.2,2.2v102.8c0,1.2-1,2.2-2.2,2.2h-109.1c-1.2,0-2.2-1-2.2-2.2v-36.3c0-1.2,1-2.2,2.2-2.2h25.1v-21.2
		c0-1.2,1-2.2,2.2-2.2h25.1V96.8c0-1.2,1-2.2,2.2-2.2L-390.7,94.6L-390.7,94.6z M-390.7,99h-22.9v77.6h22.9V99z M-418,121.4h-22.9
		v55.2h22.9V121.4z M-445.2,144.8h-22.9v31.9h22.9V144.8z"/>
</g>
<g>
	<path class="st0" d="M-155.1,79.1c0,3.5-2.2,6.2-5.6,7v1.5c0,1.2-1,2.2-2.2,2.2s-2.2-1-2.2-2.2v-1.6c-2.9-0.9-5.1-3.7-5.1-7
		c0-1.2,1-2.2,2.2-2.2s2.2,1,2.2,2.2c0,1.6,1.3,2.9,2.9,2.9c1.6,0,3.3-0.8,3.3-2.9s-1.7-2.9-3.3-2.9c-4.5,0-7.8-3.1-7.8-7.3
		c0-3.5,2.2-6.2,5.6-7v-1.5c0-1.2,1-2.2,2.2-2.2c1.2,0,2.2,1,2.2,2.2V62c2.9,0.9,5.1,3.7,5.1,7c0,1.2-1,2.2-2.2,2.2s-2.2-1-2.2-2.2
		c0-1.6-1.3-2.9-2.9-2.9c-1.6,0-3.3,0.8-3.3,2.9c0,2.1,1.7,2.9,3.3,2.9C-158.3,71.8-155.1,74.9-155.1,79.1z M-91.3,38.7v34.9
		c0,2.6-2.1,4.7-4.7,4.7h-4.6c-1.7,0-3.2-0.9-4-2.3c-3.5,2-7.5,3.1-11.5,3.1h-15c-2.4,14.6-14.5,25.9-29.5,26.9v20.4
		c0.7-0.3,1.5-0.7,2.4-1.2c4.5-19.1,16.6-19.3,26.4-19.5c4.8-0.1,9.3-0.1,12.2-2.4c0.7-0.5,1.7-0.6,2.5-0.2c0.8,0.5,1.2,1.3,1.1,2.2
		c-1.5,9.9-6.7,17.9-14.5,22.4c-4.3,2.5-9.2,3.8-14.2,3.8c-3.9,0-7.9-0.7-11.9-2.2c-1.5,0.7-2.8,1.3-4,1.8v6.3
		c3.8,0.4,7.2,3.1,8.3,7c0.2,0.7,0.3,1.3,0.3,2l17.3-10c1.9-1.1,4.2-1.4,6.4-0.8c2.2,0.6,4,2,5.1,3.9c1.1,1.9,1.4,4.2,0.8,6.4
		c-0.6,2.2-2,4-3.9,5.1l-40.9,23.6c-2.1,1.2-4.3,1.8-6.6,1.8c-1.2,0-2.4-0.2-3.6-0.5c-1.4-0.4-2.6-0.7-3.9-1.1
		c-6.6-1.9-11.5-3.3-19.1-1.7c0.2,1.7-0.9,3.4-2.6,3.9l-5.5,1.5c-0.3,0.1-0.6,0.1-0.9,0.1c-0.6,0-1.2-0.2-1.8-0.5
		c-0.8-0.5-1.4-1.2-1.7-2.2l-9.8-36.5c-0.2-0.9-0.1-1.9,0.4-2.7c0.5-0.8,1.2-1.4,2.2-1.7l5.5-1.5c1.9-0.5,3.9,0.6,4.4,2.5l0,0
		l0.1,0.3c3.2-0.7,6-1.7,8.4-2.6c4.7-1.8,8.8-3.3,12.9-0.9l9.9,5.7c2.4,1.4,4.9,1.7,7.6,1l6.3-1.7v-6.9c-1.2-0.5-2.5-1.1-4-1.8
		c-4,1.5-8,2.2-11.9,2.2c-5.1,0-9.9-1.3-14.2-3.8c-7.8-4.5-13-12.5-14.5-22.4c-0.1-0.9,0.3-1.8,1.1-2.2c0.8-0.5,1.8-0.4,2.5,0.2
		c2.9,2.2,7.4,2.3,12.2,2.4c9.8,0.2,21.9,0.3,26.4,19.5c0.9,0.4,1.7,0.8,2.4,1.2v-20.4C-181.7,105-195,91-195,74.1
		c0-17.7,14.4-32.1,32.1-32.1c2.8,0,5.6,0.4,8.3,1.1l13.5-12.3c2.8-2.5,6.7-3,10-1.2c7.6,4.2,15.1,7.1,26.1,7.9
		c0.6-1.9,2.4-3.3,4.5-3.3h4.6C-93.4,34-91.3,36.1-91.3,38.7z M-174.6,126.6c-0.2-0.1-0.3-0.2-0.5-0.2c-3.1-1.7-6.5-3.5-10.7-5.6
		c-1.1-0.5-1.5-1.9-1-3c0.5-1.1,1.9-1.5,3-1c4.2,2.1,7.7,4,10.8,5.7c0,0,0,0,0,0c-4.2-11.9-12.4-12-21-12.1
		c-3.5-0.1-7.1-0.1-10.3-1.1c1.9,6.5,5.9,11.8,11.3,14.9C-187.5,127.3-181.1,128.1-174.6,126.6z M-205,173.2l-0.2-0.9l0,0l0,0
		l-9.1-33.9l-3.8,1l9.3,34.8L-205,173.2z M-162.8,142.2l-7.4,2c-3.8,1-7.5,0.5-11-1.4l-9.9-5.7c-2.2-1.3-4.7-0.5-9.2,1.2
		c-2.4,0.9-5.4,2-8.8,2.8l7.5,28.1c8.8-1.9,14.5-0.3,21.5,1.7c1.2,0.3,2.5,0.7,3.8,1.1c2.4,0.6,4.7,0.4,6.8-0.9l40.9-23.6
		c0.9-0.5,1.6-1.4,1.8-2.4c0.3-1,0.1-2.1-0.4-3c-0.5-0.9-1.4-1.6-2.4-1.8s-2.1-0.1-3,0.4l-21.4,12.4c-1.2,1.6-3,2.9-5.1,3.4
		l-10.8,2.9c-1.3,0.3-2.6,0.5-3.8,0.5c-1.2,0-2.4-0.2-3.6-0.5c-1.2-0.3-1.9-1.5-1.6-2.7c0.3-1.2,1.5-1.9,2.7-1.6
		c1.6,0.4,3.3,0.4,5.1-0.1l10.8-2.9c1.2-0.3,2.2-1,2.8-2c0,0,0-0.1,0.1-0.1c0.8-1.2,1.1-2.7,0.7-4.1
		C-157.3,143.1-160.1,141.5-162.8,142.2z M-152.8,122.5C-152.8,122.5-152.8,122.5-152.8,122.5c3.1-1.7,6.6-3.6,10.8-5.7
		c1.1-0.5,2.4-0.1,3,1c0.5,1.1,0.1,2.4-1,3c-4.2,2.1-7.6,4-10.7,5.6c-0.2,0.1-0.3,0.2-0.5,0.2c6.6,1.5,12.9,0.7,18.4-2.4
		c5.5-3.2,9.4-8.4,11.3-14.9c-3.2,1-6.8,1-10.3,1.1C-140.4,110.5-148.6,110.6-152.8,122.5z M-135.1,74c0-1.4-0.1-2.7-0.3-4l-1.9,1.1
		c-0.8,0.5-1.6,0.8-2.5,1c0.1,0.7,0.1,1.3,0.1,2c0,12.8-10.4,23.2-23.2,23.2S-186,86.8-186,74s10.4-23.2,23.2-23.2
		c5.2,0,10.1,1.7,14.2,4.9c0.5-0.5,1.1-0.9,1.7-1.3l2.2-1.3c-5-4.4-11.4-6.8-18.2-6.8c-15.3,0-27.7,12.4-27.7,27.7
		s12.4,27.7,27.7,27.7S-135.1,89.3-135.1,74z M-150.4,67.6c-1.3-2.2-1.6-4.8-1-7.3c0.1-0.3,0.2-0.6,0.3-0.8
		c-3.3-2.7-7.4-4.1-11.7-4.1c-10.3,0-18.8,8.4-18.8,18.8c0,10.3,8.4,18.8,18.8,18.8c10.3,0,18.8-8.4,18.8-18.8c0-0.6,0-1.3-0.1-1.9
		C-146.7,71.6-149,70-150.4,67.6z M-116.1,74.8c3.9,0,7.7-1.2,10.9-3.5V41.7c-11.8-0.8-19.8-3.9-28-8.4c-1.6-0.9-3.5-0.7-4.9,0.6
		l-11.7,10.7c3.4,1.5,6.5,3.6,9.2,6.1l7-4.1c1.1-0.6,2.4-0.2,3,0.8s0.2,2.4-0.8,3l-13.3,7.7c-1.2,0.7-2,1.8-2.4,3.2
		c-0.4,1.3-0.2,2.7,0.5,3.9c1.4,2.5,4.6,3.3,7.1,1.9l19.6-11.3c1.1-0.6,2.4-0.2,3,0.8c0.6,1.1,0.2,2.4-0.8,3l-13.7,7.9
		c0.4,2.1,0.6,4.2,0.6,6.4c0,0.3,0,0.5,0,0.8L-116.1,74.8L-116.1,74.8z M-95.7,38.7c0-0.2-0.1-0.3-0.3-0.3h-4.6
		c-0.2,0-0.3,0.1-0.3,0.3v34.9c0,0.2,0.1,0.3,0.3,0.3h4.6c0.2,0,0.3-0.1,0.3-0.3V38.7z"/>
</g>
<g>
	<path class="st1" d="M101.9,34.6c1.1,0,2.1,0.9,2.1,2.1v67l47.4,47.4c0.8,0.8,0.8,2.1,0,2.9c-9.9,9.9-22.5,16.6-36.1,19.2
		c-13.7,2.7-27.9,1.2-40.7-4.3c-1.5,1.2-3.4,1.8-5.3,1.8H25.7c-3.6,0-6.9-2.3-8.1-5.7c-1.3-3.4-0.2-7.3,2.5-9.6
		c-2-1.6-3.1-4.1-3.1-6.6c0-2.6,1.1-5,3.1-6.6c-2.8-2.4-3.8-6.2-2.6-9.6c1.3-3.4,4.5-5.7,8.2-5.7h7.7c-6.1-3.6-10.6-9.3-12.6-16
		c-2-6.7-1.4-14,1.7-20.3c3.1-6.3,8.5-11.2,15.1-13.7c5.4-12.5,14.4-23.2,25.8-30.7C74.9,38.6,88.2,34.6,101.9,34.6L101.9,34.6z
		 M77.1,165.6c11.7,4.7,24.5,6,36.8,3.7c12.4-2.3,23.8-8.1,33-16.7L100.4,106c-0.4-0.4-0.6-0.9-0.6-1.5V38.8
		c-11.9,0.4-23.5,4-33.6,10.4c-10,6.5-18.1,15.5-23.4,26.2c8.6-1.5,17.4,1.2,23.8,7.3c6.3,6,9.5,14.7,8.5,23.4
		c-1,8.7-6,16.4-13.6,20.8h7.7c3.6,0,6.9,2.3,8.1,5.7c1.2,3.4,0.2,7.3-2.5,9.6c2,1.7,3.1,4.1,3.1,6.6c0,2.6-1.1,5-3.1,6.6
		C77.7,158,78.7,162.1,77.1,165.6L77.1,165.6z M69.2,157.5H25.7c-2.5,0-4.6,2.1-4.6,4.6c0,2.5,2,4.6,4.6,4.6h43.5
		c2.5,0,4.6-2.1,4.6-4.6C73.7,159.6,71.7,157.5,69.2,157.5z M69.2,144.2H25.7c-2.5,0.1-4.5,2.1-4.5,4.6c0,2.5,2,4.5,4.5,4.6h43.5
		c2.5-0.1,4.5-2.1,4.5-4.6C73.7,146.3,71.7,144.3,69.2,144.2z M69.2,131l-43.5,0c-2.5,0.1-4.5,2.1-4.5,4.6s2,4.5,4.5,4.6h43.5
		c2.5-0.1,4.5-2.1,4.5-4.6S71.7,131,69.2,131L69.2,131z M45.4,88v2.4c-3.5,1-5.8,4.5-5.3,8.1c0.5,3.7,3.6,6.4,7.3,6.4
		c1.3,0,2.5,0.8,3,2c0.5,1.2,0.2,2.6-0.7,3.6c-0.9,0.9-2.3,1.2-3.6,0.7c-1.2-0.5-2-1.7-2-3c0-1.1-0.9-2.1-2.1-2.1
		c-1.1,0-2.1,0.9-2.1,2.1c0,3.3,2.2,6.2,5.3,7.1v2.4c0,1.1,0.9,2.1,2.1,2.1c1.1,0,2.1-0.9,2.1-2.1v-2.4c3.6-1,5.8-4.5,5.3-8.1
		c-0.5-3.7-3.7-6.4-7.3-6.4c-1.3,0-2.5-0.8-3-2c-0.5-1.2-0.2-2.6,0.7-3.6c0.9-0.9,2.3-1.2,3.6-0.7c1.2,0.5,2,1.7,2,3
		c0,1.1,0.9,2.1,2.1,2.1c1.1,0,2.1-0.9,2.1-2.1c0-3.3-2.2-6.2-5.3-7.1V88c0-1.1-0.9-2.1-2.1-2.1C46.3,85.9,45.4,86.8,45.4,88z
		 M64.2,86.1c-6.8-6.8-17-8.8-25.8-5.1c-8.8,3.7-14.6,12.3-14.6,21.9s5.8,18.2,14.6,21.9c8.9,3.7,19,1.6,25.8-5.1
		C73.4,110.4,73.4,95.4,64.2,86.1L64.2,86.1z M183,103.7c0-1.1-0.9-2.1-2.1-2.1h-67.9c-0.8,0-1.6,0.5-1.9,1.3
		c-0.3,0.8-0.1,1.7,0.4,2.2l48,48c0.8,0.8,2.1,0.8,2.9,0C175.7,140,183,122.2,183,103.7L183,103.7z M173.9,128.8
		c3-7.3,4.7-15.2,5-23.1H118l43,43C166.5,142.9,170.9,136.2,173.9,128.8L173.9,128.8z M110.1,25.5c-0.6-0.1-1.1,0.1-1.6,0.5
		c-0.4,0.4-0.7,0.9-0.7,1.5v67.9c0,0.5,0.2,1.1,0.6,1.4c0.4,0.4,0.9,0.6,1.5,0.6h67.9c0.5,0,1.1-0.2,1.5-0.6
		c0.4-0.4,0.6-0.9,0.6-1.4c0-18.5-7.3-36.3-20.4-49.4C146.3,32.9,128.6,25.5,110.1,25.5L110.1,25.5z M156.4,48.9
		c-11.8-11.9-27.8-18.8-44.5-19.3v63.8h63.8C175.2,76.6,168.3,60.7,156.4,48.9L156.4,48.9z"/>
</g>
</svg>
