<?xml version="1.0" encoding="utf-8"?>
<!-- Generator: Adobe Illustrator 28.3.0, SVG Export Plug-In . SVG Version: 6.00 Build 0)  -->
<svg version="1.1" id="Capa_1" xmlns="http://www.w3.org/2000/svg" xmlns:xlink="http://www.w3.org/1999/xlink" x="0px" y="0px"
	 viewBox="0 0 200 200" style="enable-background:new 0 0 200 200;" xml:space="preserve">
<style type="text/css">
	.st0{fill:#FFFFFF;}
</style>
<g>
	<path class="st0" d="M43.8,113.6c-1,0.8-2.3,0.6-3.1-0.4c-0.8-1-0.6-2.3,0.4-3.1l6-4.7c0.9-0.8,2.3-0.6,3.1,0.4
		c0.7,1,0.6,2.3-0.4,3.1L43.8,113.6z M54.5,105.2c-0.9,0.7-2.3,0.6-3.1-0.4c-0.7-0.9-0.6-2.3,0.4-3.1L62.9,93c1-0.7,2.3-0.6,3.1,0.4
		c0.8,1,0.6,2.3-0.4,3.1L54.5,105.2z M70,93c-1,0.8-2.3,0.6-3.1-0.4c-0.8-1-0.6-2.3,0.4-3.1l33.2-26.2c0.9-0.8,2.3-0.6,3.1,0.4
		c0.8,1,0.6,2.3-0.4,3.1L70,93z M135.5,20.4l4.7,14.6l15.4,0c2.1,0,3,2.7,1.3,4l0,0l-12.4,9l4.8,14.6c0.7,2-1.7,3.8-3.5,2.4l-12.3-9
		L121,65.1c-1.7,1.2-4-0.4-3.4-2.5h0l4.8-14.6l-12.4-9c-1.7-1.2-0.9-4.1,1.5-4l15.2,0l4.7-14.6C132,18.4,134.9,18.4,135.5,20.4
		L135.5,20.4z M136.5,37.9l-3.1-9.7l-3.1,9.7l0,0c-0.3,0.9-1.1,1.5-2.1,1.5l-10.1,0l8.2,5.9c0.8,0.5,1.1,1.5,0.8,2.5l-3.2,9.7l8.2-6
		c0.7-0.6,1.8-0.6,2.6,0l8.2,6l-3.1-9.6c-0.3-0.9,0-2,0.8-2.5l8.2-5.9l-10,0C137.7,39.5,136.8,38.9,136.5,37.9L136.5,37.9z
		 M122,176.7h22.9V78.3H122V176.7z M117.5,94.6V76.1c0-1.2,1-2.2,2.2-2.2H147c1.2,0,2.2,1,2.2,2.2v102.8c0,1.2-1,2.2-2.2,2.2H37.9
		c-1.2,0-2.2-1-2.2-2.2v-36.3c0-1.2,1-2.2,2.2-2.2H63v-21.2c0-1.2,1-2.2,2.2-2.2h25.1V96.8c0-1.2,1-2.2,2.2-2.2L117.5,94.6
		L117.5,94.6z M117.5,99H94.7v77.6h22.9V99z M90.3,121.4H67.4v55.2h22.9V121.4z M63,144.8H40.1v31.9H63V144.8z"/>
</g>
</svg>
